HIERARCHY
ROOT Root
{
  OFFSET 0.0 0.0 0.0
  CHANNELS 6 Xposition Yposition Zposition Zrotation Yrotation Xrotation
  JOINT Hips
  {
    OFFSET 0.0 100.0 0.0
    CHANNELS 6 Xposition Yposition Zposition Zrotation Yrotation Xrotation
    JOINT Spine1
    {
      OFFSET 5.003913 -0.037094 -0.013727
      CHANNELS 3 Zrotation Yrotation Xrotation
      JOINT Spine2
      {
        OFFSET 7.125363 -1e-06 0.0
        CHANNELS 3 Zrotation Yrotation Xrotation
        JOINT Chest
        {
          OFFSET 7.594027 1e-06 0.0
          CHANNELS 3 Zrotation Yrotation Xrotation
          JOINT Neck1
          {
            OFFSET 26.313086 -0.460272 -0.181672
            CHANNELS 3 Zrotation Yrotation Xrotation
            JOINT Neck2
            {
              OFFSET 8.045911 0.0 0.0
              CHANNELS 3 Zrotation Yrotation Xrotation
              JOINT Head
              {
                OFFSET 6.432774 0.0 0.0
                CHANNELS 3 Zrotation Yrotation Xrotation
                JOINT HeadEnd
                {
                  OFFSET 16.169773 0.06451 0.00362
                  CHANNELS 3 Zrotation Yrotation Xrotation
                }
                JOINT Jaw
                {
                  OFFSET 0.108741 3.12938 0.002639
                  CHANNELS 3 Zrotation Yrotation Xrotation
                }
                JOINT LeftEye
                {
                  OFFSET 4.45173 8.166359 3.206392
                  CHANNELS 3 Zrotation Yrotation Xrotation
                }
                JOINT RightEye
                {
                  OFFSET 4.436895 8.135758 -3.222429
                  CHANNELS 3 Zrotation Yrotation Xrotation
                }
              }
            }
          }
          JOINT LeftShoulder
          {
            OFFSET 23.218927 5.195579 1.621656
            CHANNELS 3 Zrotation Yrotation Xrotation
            JOINT LeftArm
            {
              OFFSET 15.902118 2e-06 -2e-06
              CHANNELS 3 Zrotation Yrotation Xrotation
              JOINT LeftForeArm
              {
                OFFSET 28.739307 0.0 -1e-06
                CHANNELS 3 Zrotation Yrotation Xrotation
                JOINT LeftHand
                {
                  OFFSET 27.093981 -4e-06 0.0
                  CHANNELS 3 Zrotation Yrotation Xrotation
                  JOINT LeftHandThumb1
                  {
                    OFFSET 2.276781 3.380274 0.83384
                    CHANNELS 3 Zrotation Yrotation Xrotation
                    JOINT LeftHandThumb2
                    {
                      OFFSET 4.705309 -1e-06 -1e-06
                      CHANNELS 3 Zrotation Yrotation Xrotation
                      JOINT LeftHandThumb3
                      {
                        OFFSET 2.798515 0.0 3e-06
                        CHANNELS 3 Zrotation Yrotation Xrotation
                        JOINT LeftHandThumbEnd
                        {
                          OFFSET 3.180793 4e-06 -4e-06
                          CHANNELS 3 Zrotation Yrotation Xrotation
                        }
                      }
                    }
                  }
                  JOINT LeftHandIndex1
                  {
                    OFFSET 3.247786 2.352677 0.137192
                    CHANNELS 3 Zrotation Yrotation Xrotation
                    JOINT LeftHandIndex2
                    {
                      OFFSET 6.367095 1e-06 0.0
                      CHANNELS 3 Zrotation Yrotation Xrotation
                      JOINT LeftHandIndex3
                      {
                        OFFSET 3.662364 0.0 0.0
                        CHANNELS 3 Zrotation Yrotation Xrotation
                        JOINT LeftHandIndex4
                        {
                          OFFSET 2.329242 4e-06 -4e-06
                          CHANNELS 3 Zrotation Yrotation Xrotation
                          JOINT LeftHandIndexEnd
                          {
                            OFFSET 2.767823 1e-06 0.0
                            CHANNELS 3 Zrotation Yrotation Xrotation
                          }
                        }
                      }
                    }
                  }
                  JOINT LeftHandMiddle1
                  {
                    OFFSET 3.163612 0.945023 -0.406112
                    CHANNELS 3 Zrotation Yrotation Xrotation
                    JOINT LeftHandMiddle2
                    {
                      OFFSET 6.276789 3e-06 0.0
                      CHANNELS 3 Zrotation Yrotation Xrotation
                      JOINT LeftHandMiddle3
                      {
                        OFFSET 4.35652 -1e-06 4e-06
                        CHANNELS 3 Zrotation Yrotation Xrotation
                        JOINT LeftHandMiddle4
                        {
                          OFFSET 2.996877 0.0 8e-06
                          CHANNELS 3 Zrotation Yrotation Xrotation
                          JOINT LeftHandMiddleEnd
                          {
                            OFFSET 2.323256 3e-06 -4e-06
                            CHANNELS 3 Zrotation Yrotation Xrotation
                          }
                        }
                      }
                    }
                  }
                  JOINT LeftHandRing1
                  {
                    OFFSET 2.882606 -0.309162 0.107445
                    CHANNELS 3 Zrotation Yrotation Xrotation
                    JOINT LeftHandRing2
                    {
                      OFFSET 6.033198 0.0 4e-06
                      CHANNELS 3 Zrotation Yrotation Xrotation
                      JOINT LeftHandRing3
                      {
                        OFFSET 4.350578 3e-06 0.0
                        CHANNELS 3 Zrotation Yrotation Xrotation
                        JOINT LeftHandRing4
                        {
                          OFFSET 2.651321 2e-06 -7e-06
                          CHANNELS 3 Zrotation Yrotation Xrotation
                          JOINT LeftHandRingEnd
                          {
                            OFFSET 1.937663 1e-06 -4e-06
                            CHANNELS 3 Zrotation Yrotation Xrotation
                          }
                        }
                      }
                    }
                  }
                  JOINT LeftHandPinky1
                  {
                    OFFSET 2.865315 -1.525436 0.575687
                    CHANNELS 3 Zrotation Yrotation Xrotation
                    JOINT LeftHandPinky2
                    {
                      OFFSET 5.54936 1e-06 -8e-06
                      CHANNELS 3 Zrotation Yrotation Xrotation
                      JOINT LeftHandPinky3
                      {
                        OFFSET 3.070974 0.0 -4e-06
                        CHANNELS 3 Zrotation Yrotation Xrotation
                        JOINT LeftHandPinky4
                        {
                          OFFSET 1.549672 1e-06 0.0
                          CHANNELS 3 Zrotation Yrotation Xrotation
                          JOINT LeftHandPinkyEnd
                          {
                            OFFSET 1.952123 0.0 0.0
                            CHANNELS 3 Zrotation Yrotation Xrotation
                          }
                        }
                      }
                    }
                  }
                }
              }
            }
          }
          JOINT RightShoulder
          {
            OFFSET 23.161716 5.296122 -1.380114
            CHANNELS 3 Zrotation Yrotation Xrotation
            JOINT RightArm
            {
              OFFSET -16.027195 -2e-06 1.1e-05
              CHANNELS 3 Zrotation Yrotation Xrotation
              JOINT RightForeArm
              {
                OFFSET -28.736639 4e-06 2e-06
                CHANNELS 3 Zrotation Yrotation Xrotation
                JOINT RightHand
                {
                  OFFSET -27.133619 6e-06 0.0
                  CHANNELS 3 Zrotation Yrotation Xrotation
                  JOINT RightHandThumb1
                  {
                    OFFSET -2.274328 -3.351035 -0.83067
                    CHANNELS 3 Zrotation Yrotation Xrotation
                    JOINT RightHandThumb2
                    {
                      OFFSET -4.703594 -3e-06 2e-06
                      CHANNELS 3 Zrotation Yrotation Xrotation
                      JOINT RightHandThumb3
                      {
                        OFFSET -2.794935 -4e-06 -3e-06
                        CHANNELS 3 Zrotation Yrotation Xrotation
                        JOINT RightHandThumbEnd
                        {
                          OFFSET -3.183852 4e-06 1e-06
                          CHANNELS 3 Zrotation Yrotation Xrotation
                        }
                      }
                    }
                  }
                  JOINT RightHandIndex1
                  {
                    OFFSET -3.253496 -2.33755 -0.127667
                    CHANNELS 3 Zrotation Yrotation Xrotation
                    JOINT RightHandIndex2
                    {
                      OFFSET -6.344434 0.0 0.0
                      CHANNELS 3 Zrotation Yrotation Xrotation
                      JOINT RightHandIndex3
                      {
                        OFFSET -3.654871 0.0 -8e-06
                        CHANNELS 3 Zrotation Yrotation Xrotation
                        JOINT RightHandIndex4
                        {
                          OFFSET -2.327586 -1e-06 0.0
                          CHANNELS 3 Zrotation Yrotation Xrotation
                          JOINT RightHandIndexEnd
                          {
                            OFFSET -2.770001 3e-06 8e-06
                            CHANNELS 3 Zrotation Yrotation Xrotation
                          }
                        }
                      }
                    }
                  }
                  JOINT RightHandMiddle1
                  {
                    OFFSET -3.168223 -0.944764 0.411762
                    CHANNELS 3 Zrotation Yrotation Xrotation
                    JOINT RightHandMiddle2
                    {
                      OFFSET -6.266691 -1e-06 -4e-06
                      CHANNELS 3 Zrotation Yrotation Xrotation
                      JOINT RightHandMiddle3
                      {
                        OFFSET -4.348901 0.0 0.0
                        CHANNELS 3 Zrotation Yrotation Xrotation
                        JOINT RightHandMiddle4
                        {
                          OFFSET -3.00024 2e-06 -4e-06
                          CHANNELS 3 Zrotation Yrotation Xrotation
                          JOINT RightHandMiddleEnd
                          {
                            OFFSET -2.321477 -4e-06 -4e-06
                            CHANNELS 3 Zrotation Yrotation Xrotation
                          }
                        }
                      }
                    }
                  }
                  JOINT RightHandRing1
                  {
                    OFFSET -2.885654 0.293261 -0.119232
                    CHANNELS 3 Zrotation Yrotation Xrotation
                    JOINT RightHandRing2
                    {
                      OFFSET -6.032835 -1e-06 -4e-06
                      CHANNELS 3 Zrotation Yrotation Xrotation
                      JOINT RightHandRing3
                      {
                        OFFSET -4.33881 0.0 -4e-06
                        CHANNELS 3 Zrotation Yrotation Xrotation
                        JOINT RightHandRing4
                        {
                          OFFSET -2.654903 -4e-06 -4e-06
                          CHANNELS 3 Zrotation Yrotation Xrotation
                          JOINT RightHandRingEnd
                          {
                            OFFSET -1.935122 0.0 4e-06
                            CHANNELS 3 Zrotation Yrotation Xrotation
                          }
                        }
                      }
                    }
                  }
                  JOINT RightHandPinky1
                  {
                    OFFSET -2.866241 1.503904 -0.60527
                    CHANNELS 3 Zrotation Yrotation Xrotation
                    JOINT RightHandPinky2
                    {
                      OFFSET -5.553177 -2e-06 0.0
                      CHANNELS 3 Zrotation Yrotation Xrotation
                      JOINT RightHandPinky3
                      {
                        OFFSET -3.062664 -1e-06 -4e-06
                        CHANNELS 3 Zrotation Yrotation Xrotation
                        JOINT RightHandPinky4
                        {
                          OFFSET -1.546529 2e-06 4e-06
                          CHANNELS 3 Zrotation Yrotation Xrotation
                          JOINT RightHandPinkyEnd
                          {
                            OFFSET -1.952341 0.0 -4e-06
                            CHANNELS 3 Zrotation Yrotation Xrotation
                          }
                        }
                      }
                    }
                  }
                }
              }
            }
          }
        }
      }
    }
    JOINT LeftLeg
    {
      OFFSET -8.443107 2.567604 10.043214
      CHANNELS 3 Zrotation Yrotation Xrotation
      JOINT LeftShin
      {
        OFFSET 43.229198 1e-06 -1e-06
        CHANNELS 3 Zrotation Yrotation Xrotation
        JOINT LeftFoot
        {
          OFFSET 42.298611 1e-06 1e-06
          CHANNELS 3 Zrotation Yrotation Xrotation
          JOINT LeftToeBase
          {
            OFFSET 14.165858 1e-06 0.0
            CHANNELS 3 Zrotation Yrotation Xrotation
            JOINT LeftToeEnd
            {
              OFFSET 6.7141 -0.234461 0.0
              CHANNELS 3 Zrotation Yrotation Xrotation
            }
          }
        }
      }
    }
    JOINT RightLeg
    {
      OFFSET -8.303923 2.592729 -10.047278
      CHANNELS 3 Zrotation Yrotation Xrotation
      JOINT RightShin
      {
        OFFSET -43.369682 0.0 1e-06
        CHANNELS 3 Zrotation Yrotation Xrotation
        JOINT RightFoot
        {
          OFFSET -42.260784 4e-06 2e-06
          CHANNELS 3 Zrotation Yrotation Xrotation
          JOINT RightToeBase
          {
            OFFSET -14.222245 -2e-06 -1e-06
            CHANNELS 3 Zrotation Yrotation Xrotation
            JOINT RightToeEnd
            {
              OFFSET -6.660062 0.232574 -2e-06
              CHANNELS 3 Zrotation Yrotation Xrotation
            }
          }
        }
      }
    }
  }
}
MOTION
Frames: 4
Frame Time: 0.03333333333333333
0.0 0.0 0.0 0.0 -0.0 0.0 9.608961 9.890402 8.122787 179.505875 -84.68544 1.798214 -1.470966 -1.952005 0.226028 -11.383268 -0.447459 3.418638 15.846754 -4.112039 2.544673 6.142903 -8.804773 1.575886 -2.273564 0.192628 0.499557 -23.323328 -4.006378 2.925217 8e-06 0.0 -1e-06 -0.248238 0.15159 -0.142669 -0.174016 0.37462 -0.117955 -0.153593 -0.074891 -0.164481 -30.910885 -61.170593 38.718956 52.359196 -32.658367 -98.254204 125.793167 1.721886 0.954737 -7.395025 24.622702 7.528519 17.636633 -26.322721 52.41119 -19.466663 -14.395596 29.410389 -0.0 -8.774822 -4e-06 14.298325 -17.875669 6.237463 -0.609777 -1.795655 -3.889326 -4.807088 -11.046809 -2.937853 6e-06 -20.976017 -1e-06 -5.019965 -25.033554 -4.031885 4e-06 -0.0 1e-06 -10.634534 -5.686971 -3.56559 10.573275 -17.922947 -3.113903 4e-06 -13.821205 -0.0 -0.501774 -31.181498 -4.027015 -10.795307 -57.2327 6.33111 -13.982714 -7.150198 -2.875044 13.772731 -8.401491 -3.218241 0.34774 -34.211544 0.771649 -0.963028 -17.73337 2.621019 1e-06 -0.0 -0.0 -17.346416 -20.095217 -4.201786 21.757557 -1.638377 3.866431 2e-06 -6.338823 -1e-06 -1.697587 -22.591742 -6.194008 1e-06 -4e-06 -1e-06 153.896088 -69.718163 39.907906 12.955095 -48.529747 -82.593941 148.821869 0.147477 0.501701 -2.144826 23.960903 12.337677 22.182117 -20.375898 49.933327 -16.701817 -16.74353 28.476534 -2e-06 -12.6906 -2e-06 14.781464 -17.712404 3.367456 -0.10592 -1.513856 -4.275882 -5.03904 -5.612871 -2.953556 4e-06 -11.020523 -2e-06 -6.111296 -15.895332 -3.840471 -0.0 1e-06 0.0 -10.283369 -5.680287 -4.341839 11.028294 -11.302404 -2.372633 -1.384266 -14.238578 -6.32012 -0.625435 -26.924187 -3.827603 -4.246883 -49.849155 -3.77615 -13.708522 -7.363475 -3.720941 18.14115 -14.052739 -3.242675 8e-06 -18.78727 -1e-06 -0.429711 -8.456039 2.555504 -1e-06 0.0 -2e-06 -15.923534 -20.094482 -5.473587 30.41921 -7.190827 1.735925 2e-06 -8.162925 -0.0 -1.8619 -22.861467 -6.167941 -1e-06 -4e-06 -2e-06 178.068069 -17.821865 -127.234116 -4.489152 -10.22718 111.281807 -59.780582 20.194643 -1.560575 -10.339914 1.273088 1.773972 -1.0 -0.0 -0.0 -3.704255 -19.414518 -93.003914 8.462779 -11.394343 52.251144 -35.749767 15.91994 -10.35601 -6.588516 0.152526 2.599915 -1.000004 0.0 1e-06 
0.0 0.0 0.0 0.0 -0.0 0.0 9.623396 9.904707 8.152546 179.180908 -84.701767 2.110784 -1.479997 -1.966273 0.217496 -11.414042 -0.451214 3.405718 15.862162 -4.084068 2.572356 6.137019 -8.86111 1.595278 -2.27816 0.1796 0.469394 -23.345346 -3.921985 2.977001 6e-06 1e-06 -1e-06 -0.251555 0.138966 -0.144597 -0.165861 0.351269 -0.113395 -0.141959 -0.076595 -0.172629 -30.795612 -61.097797 38.64534 52.454327 -32.674046 -98.189972 125.771408 1.734503 1.018924 -7.255874 24.867359 7.766713 17.636625 -26.322725 52.411179 -19.466665 -14.395598 29.410385 -1e-06 -8.774822 -2e-06 14.291104 -17.877775 6.257249 -0.609776 -1.795654 -3.889328 -4.807087 -11.046809 -2.93785 4e-06 -20.976015 2e-06 -5.019971 -25.033554 -4.031879 6e-06 -1e-06 -0.0 -10.634533 -5.686969 -3.565586 10.573275 -17.922947 -3.113903 4e-06 -13.821205 0.0 -0.501776 -31.181498 -4.027014 -10.770403 -57.27137 6.318854 -13.982712 -7.150197 -2.87504 13.772731 -8.401491 -3.218242 0.347735 -34.211552 0.771654 -0.963028 -17.733366 2.621021 -0.0 -0.0 -0.0 -17.346418 -20.095213 -4.201777 21.757559 -1.638377 3.866426 2e-06 -6.338823 -1e-06 -1.69759 -22.591747 -6.194005 -0.0 -2e-06 -2e-06 153.98732 -69.645645 39.865631 13.193425 -48.498363 -82.759346 148.752716 0.042535 0.562762 -2.278638 24.008446 12.333565 22.182114 -20.375883 49.933308 -16.701817 -16.74353 28.476526 -2e-06 -12.690601 -2e-06 14.838559 -17.737099 3.364674 -0.105917 -1.513856 -4.275881 -5.03904 -5.612869 -2.953555 3e-06 -11.02052 -3e-06 -6.111295 -15.89533 -3.840472 -0.0 -1e-06 -0.0 -10.283368 -5.680287 -4.341838 11.028294 -11.302402 -2.372633 -1.384268 -14.238577 -6.32012 -0.625436 -26.924187 -3.827603 -4.260077 -49.932709 -3.766431 -13.708525 -7.363474 -3.720938 18.141148 -14.052738 -3.242674 8e-06 -18.787266 -2e-06 -0.429711 -8.456038 2.555503 -1e-06 1e-06 -2e-06 -15.923538 -20.094479 -5.473583 30.41921 -7.190826 1.735925 2e-06 -8.162922 -1e-06 -1.8619 -22.861464 -6.167942 1e-06 -3e-06 -3e-06 178.159515 -17.807837 -127.595406 -4.477829 -10.042678 111.756889 -59.478149 19.969221 -1.439544 -10.398121 1.265884 1.772445 -1.000001 0.0 -0.0 -3.548565 -19.277615 -92.967957 8.226455 -11.085224 52.193478 -35.445103 15.903441 -10.367338 -6.560514 0.152401 2.587586 -1.000002 -1e-06 0.0 
0.0 0.0 0.0 0.0 -0.0 0.0 9.627385 9.906888 8.179942 178.797119 -84.694557 2.489561 -1.495204 -1.972461 0.207783 -11.441969 -0.457572 3.383268 15.8952 -4.090669 2.598526 6.12314 -8.887943 1.617881 -2.281551 0.1562 0.468319 -23.36739 -3.860734 3.000844 8e-06 1e-06 -0.0 -0.253944 0.132855 -0.147299 -0.157048 0.340623 -0.111912 -0.13305 -0.077104 -0.179544 -30.736269 -61.021244 38.590469 52.554371 -32.681011 -98.05143 125.744057 1.772623 1.097926 -7.082325 25.127346 7.996717 17.636625 -26.322733 52.411205 -19.466654 -14.395594 29.410395 1e-06 -8.774821 -3e-06 14.301047 -17.862211 6.242878 -0.609777 -1.795654 -3.889327 -4.807088 -11.046809 -2.937851 2e-06 -20.976015 2e-06 -5.019969 -25.033552 -4.031882 6e-06 1e-06 -0.0 -10.634533 -5.686971 -3.565589 10.57327 -17.922947 -3.113898 2e-06 -13.821206 1e-06 -0.501778 -31.181498 -4.027014 -10.724793 -57.279392 6.280025 -13.982712 -7.150199 -2.875042 13.772727 -8.401491 -3.218239 0.347731 -34.211555 0.771655 -0.963031 -17.73337 2.62102 1e-06 -1e-06 -0.0 -17.346416 -20.095217 -4.201783 21.757555 -1.638373 3.86643 1e-06 -6.338823 -1e-06 -1.697588 -22.591747 -6.19401 -1e-06 -3e-06 -2e-06 153.995712 -69.577026 39.888508 13.457959 -48.4576 -82.874214 148.667435 -0.038861 0.598807 -2.333359 24.069252 12.419219 22.182116 -20.375891 49.933331 -16.701818 -16.74353 28.47654 -1e-06 -12.690603 -1e-06 14.911483 -17.771959 3.36608 -0.10592 -1.513857 -4.275882 -5.039041 -5.612873 -2.953557 3e-06 -11.020528 -3e-06 -6.1113 -15.895338 -3.840473 -1e-06 2e-06 0.0 -10.283373 -5.680291 -4.34184 11.028297 -11.302407 -2.372635 -1.384269 -14.238586 -6.320123 -0.625439 -26.924198 -3.827606 -4.294178 -50.024738 -3.748703 -13.708529 -7.36348 -3.72094 18.141153 -14.052741 -3.242675 5e-06 -18.787275 -4e-06 -0.429711 -8.456047 2.555503 -1e-06 0.0 -2e-06 -15.923543 -20.094496 -5.473586 30.419222 -7.190827 1.735926 1e-06 -8.162927 -1e-06 -1.861905 -22.861475 -6.167945 0.0 -4e-06 -0.0 178.279358 -17.765181 -127.83075 -4.44162 -9.839916 112.038422 -59.208527 19.791416 -1.368998 -10.427819 1.260162 1.773048 -1.0 -0.0 -0.0 -3.41552 -19.189268 -92.984497 8.035335 -10.832126 52.18148 -35.101315 15.775734 -10.384689 -6.533967 0.145769 2.572172 -1.000005 -0.0 -1e-06 
0.0 0.0 0.0 0.0 -0.0 0.0 9.632936 9.874523 8.201449 178.379074 -84.6623 2.918151 -1.504133 -1.986594 0.194474 -11.457199 -0.459746 3.358903 15.923567 -4.129331 2.612109 6.087352 -8.851199 1.645411 -2.287128 0.128387 0.515389 -23.346647 -3.877665 3.013698 6e-06 0.0 0.0 -0.255186 0.136161 -0.15111 -0.152325 0.345708 -0.115069 -0.13345 -0.074006 -0.184276 -30.723637 -60.942631 38.551926 52.668438 -32.672375 -97.91124 125.702026 1.811569 1.146232 -6.915116 25.387627 8.103832 17.636631 -26.322729 52.411186 -19.466665 -14.395602 29.410393 -1e-06 -8.774822 -2e-06 14.314137 -17.820642 6.194502 -0.609776 -1.795654 -3.889326 -4.807088 -11.046811 -2.937851 4e-06 -20.976019 1e-06 -5.019969 -25.033556 -4.031881 7e-06 -0.0 0.0 -10.634534 -5.68697 -3.565585 10.573277 -17.922951 -3.113902 4e-06 -13.821205 0.0 -0.501776 -31.181498 -4.027013 -10.663166 -57.261452 6.212183 -13.982715 -7.150198 -2.87504 13.772731 -8.401493 -3.218242 0.347737 -34.211555 0.77165 -0.963029 -17.73337 2.621018 1e-06 0.0 -0.0 -17.346416 -20.095217 -4.201782 21.757563 -1.638376 3.86643 1e-06 -6.338823 -1e-06 -1.697588 -22.591747 -6.194009 0.0 -2e-06 -1e-06 153.9039 -69.527611 40.010315 13.709786 -48.408756 -82.875969 148.59433 -0.07833 0.611849 -2.301623 24.181099 12.595373 22.182106 -20.375887 49.933308 -16.701809 -16.743528 28.476519 -2e-06 -12.690598 -1e-06 14.97152 -17.804117 3.369868 -0.105919 -1.513856 -4.27588 -5.039041 -5.612869 -2.953554 2e-06 -11.02052 -2e-06 -6.111297 -15.895329 -3.840469 0.0 -1e-06 0.0 -10.283369 -5.680287 -4.341837 11.028292 -11.302403 -2.372632 -1.384268 -14.238577 -6.320118 -0.625439 -26.924187 -3.8276 -4.343609 -50.102715 -3.714523 -13.708522 -7.363474 -3.720938 18.141146 -14.052737 -3.242672 8e-06 -18.787268 -1e-06 -0.429713 -8.456039 2.555503 -1e-06 -1e-06 -2e-06 -15.923534 -20.094479 -5.473582 30.419205 -7.190823 1.735924 3e-06 -8.162922 -0.0 -1.861904 -22.861465 -6.167936 -0.0 -3e-06 -2e-06 178.406693 -17.692738 -127.973076 -4.41133 -9.665634 112.19442 -58.971348 19.66221 -1.371637 -10.375223 1.261218 1.768735 -0.999998 -0.0 -0.0 -3.297137 -19.168716 -93.062248 7.909889 -10.644595 52.235886 -34.677368 15.554383 -10.355064 -6.477196 0.133329 2.56479 -1.000004 -1e-06 1e-06 
